<mxfile host="app.diagrams.net" agent="Mozilla/5.0 (Macintosh; Intel Mac OS X 10_15_7) AppleWebKit/537.36 (KHTML, like Gecko) Chrome/132.0.0.0 Safari/537.36" version="26.0.10">
  <diagram name="Page-1" id="3Rkn6DiRyemz5z4td4TQ">
    <mxGraphModel dx="1306" dy="710" grid="1" gridSize="10" guides="1" tooltips="1" connect="1" arrows="1" fold="1" page="1" pageScale="1" pageWidth="827" pageHeight="1169" math="0" shadow="0">
      <root>
        <mxCell id="0" />
        <mxCell id="1" parent="0" />
        <mxCell id="DSAJYl1_GH2W7WXDHQ-v-69" value="" style="rounded=0;whiteSpace=wrap;html=1;" vertex="1" parent="1">
          <mxGeometry y="135" width="390" height="125" as="geometry" />
        </mxCell>
        <mxCell id="DSAJYl1_GH2W7WXDHQ-v-7" value="Database Structure" style="rounded=0;whiteSpace=wrap;html=1;fontStyle=1" vertex="1" parent="1">
          <mxGeometry x="210" y="190" width="170" height="40" as="geometry" />
        </mxCell>
        <mxCell id="DSAJYl1_GH2W7WXDHQ-v-8" value="&lt;b&gt;Application&lt;/b&gt;" style="rounded=0;whiteSpace=wrap;html=1;" vertex="1" parent="1">
          <mxGeometry y="30" width="390" height="70" as="geometry" />
        </mxCell>
        <mxCell id="DSAJYl1_GH2W7WXDHQ-v-26" value="" style="edgeStyle=orthogonalEdgeStyle;rounded=0;orthogonalLoop=1;jettySize=auto;html=1;entryX=0.5;entryY=0;entryDx=0;entryDy=0;exitX=0.5;exitY=1;exitDx=0;exitDy=0;" edge="1" parent="1" target="DSAJYl1_GH2W7WXDHQ-v-19">
          <mxGeometry relative="1" as="geometry">
            <mxPoint x="285" y="520" as="sourcePoint" />
            <mxPoint x="330" y="510" as="targetPoint" />
          </mxGeometry>
        </mxCell>
        <mxCell id="DSAJYl1_GH2W7WXDHQ-v-35" value="Database WAL" style="rounded=0;whiteSpace=wrap;html=1;fontStyle=1" vertex="1" parent="1">
          <mxGeometry x="10" y="190" width="170" height="40" as="geometry" />
        </mxCell>
        <mxCell id="DSAJYl1_GH2W7WXDHQ-v-43" value="" style="edgeStyle=orthogonalEdgeStyle;rounded=0;orthogonalLoop=1;jettySize=auto;html=1;" edge="1" parent="1" source="DSAJYl1_GH2W7WXDHQ-v-44">
          <mxGeometry relative="1" as="geometry">
            <mxPoint x="95" y="610" as="targetPoint" />
          </mxGeometry>
        </mxCell>
        <mxCell id="DSAJYl1_GH2W7WXDHQ-v-48" value="Database" style="text;html=1;align=center;verticalAlign=middle;whiteSpace=wrap;rounded=0;fontStyle=1" vertex="1" parent="1">
          <mxGeometry x="165" y="230" width="60" height="30" as="geometry" />
        </mxCell>
        <mxCell id="DSAJYl1_GH2W7WXDHQ-v-59" value="" style="edgeStyle=orthogonalEdgeStyle;rounded=0;orthogonalLoop=1;jettySize=auto;html=1;exitX=0.5;exitY=1;exitDx=0;exitDy=0;entryX=0.5;entryY=0;entryDx=0;entryDy=0;" edge="1" parent="1" target="DSAJYl1_GH2W7WXDHQ-v-58">
          <mxGeometry relative="1" as="geometry">
            <mxPoint x="735" y="520" as="sourcePoint" />
            <mxPoint x="745" y="490" as="targetPoint" />
          </mxGeometry>
        </mxCell>
        <mxCell id="DSAJYl1_GH2W7WXDHQ-v-60" value="Random Writes" style="edgeLabel;html=1;align=center;verticalAlign=middle;resizable=0;points=[];" vertex="1" connectable="0" parent="DSAJYl1_GH2W7WXDHQ-v-59">
          <mxGeometry x="-0.3111" y="1" relative="1" as="geometry">
            <mxPoint as="offset" />
          </mxGeometry>
        </mxCell>
        <mxCell id="DSAJYl1_GH2W7WXDHQ-v-66" value="" style="edgeStyle=orthogonalEdgeStyle;rounded=0;orthogonalLoop=1;jettySize=auto;html=1;exitX=0.5;exitY=1;exitDx=0;exitDy=0;entryX=0.5;entryY=0;entryDx=0;entryDy=0;" edge="1" parent="1" target="DSAJYl1_GH2W7WXDHQ-v-63">
          <mxGeometry relative="1" as="geometry">
            <mxPoint x="892" y="520" as="sourcePoint" />
            <mxPoint x="902" y="490" as="targetPoint" />
          </mxGeometry>
        </mxCell>
        <mxCell id="DSAJYl1_GH2W7WXDHQ-v-67" value="Random Writes" style="edgeLabel;html=1;align=center;verticalAlign=middle;resizable=0;points=[];" vertex="1" connectable="0" parent="DSAJYl1_GH2W7WXDHQ-v-66">
          <mxGeometry x="-0.3111" y="2" relative="1" as="geometry">
            <mxPoint as="offset" />
          </mxGeometry>
        </mxCell>
        <mxCell id="DSAJYl1_GH2W7WXDHQ-v-70" value="" style="endArrow=classic;html=1;rounded=0;exitX=0.5;exitY=1;exitDx=0;exitDy=0;entryX=0.5;entryY=0;entryDx=0;entryDy=0;" edge="1" parent="1" source="DSAJYl1_GH2W7WXDHQ-v-8" target="DSAJYl1_GH2W7WXDHQ-v-35">
          <mxGeometry width="50" height="50" relative="1" as="geometry">
            <mxPoint x="390" y="390" as="sourcePoint" />
            <mxPoint x="440" y="340" as="targetPoint" />
          </mxGeometry>
        </mxCell>
        <mxCell id="DSAJYl1_GH2W7WXDHQ-v-72" value="1. Append to WAL" style="edgeLabel;html=1;align=center;verticalAlign=middle;resizable=0;points=[];" vertex="1" connectable="0" parent="DSAJYl1_GH2W7WXDHQ-v-70">
          <mxGeometry x="0.0718" y="2" relative="1" as="geometry">
            <mxPoint as="offset" />
          </mxGeometry>
        </mxCell>
        <mxCell id="DSAJYl1_GH2W7WXDHQ-v-71" value="" style="endArrow=classic;html=1;rounded=0;exitX=0.5;exitY=1;exitDx=0;exitDy=0;entryX=0.5;entryY=0;entryDx=0;entryDy=0;" edge="1" parent="1" source="DSAJYl1_GH2W7WXDHQ-v-8" target="DSAJYl1_GH2W7WXDHQ-v-7">
          <mxGeometry width="50" height="50" relative="1" as="geometry">
            <mxPoint x="205" y="110" as="sourcePoint" />
            <mxPoint x="105" y="200" as="targetPoint" />
          </mxGeometry>
        </mxCell>
        <mxCell id="DSAJYl1_GH2W7WXDHQ-v-73" value="2. Update Database" style="edgeLabel;html=1;align=center;verticalAlign=middle;resizable=0;points=[];" vertex="1" connectable="0" parent="DSAJYl1_GH2W7WXDHQ-v-71">
          <mxGeometry x="0.1005" y="3" relative="1" as="geometry">
            <mxPoint as="offset" />
          </mxGeometry>
        </mxCell>
      </root>
    </mxGraphModel>
  </diagram>
</mxfile>
